PathFileType	4	(X/Y/Z)	c:\Git\powerlifing_model_clean\simulations\HC835B\Session1\HC835B_CUT_0002\marker_experimental.trc
DataRate	CameraRate	NumFrames	NumMarkers	Units	OrigDataRate	OrigDataStartFrame	OrigNumFrames
240.000000	240.000000	5	38	mm	240.000000	30	82
Frame#	Time	RPSI			LPSI			RASI			LASI			RTH1			RTH2			RTH3			RTH4			RSK1			RSK2			RSK3			RSK4			RCAL1			RCAL2			RCAL3			RST			RPT			RTN			RFMB			RSMB			RVMB			RFMH			RSMH			RVMH			RPM			LTH1			LTH2			LTH3			LTH4			LSK1			LSK2			LSK3			LSK4			LCAL1			LCAL2			LCAL3			LFMH			LVMH			
		X1	Y1	Z1	X2	Y2	Z2	X3	Y3	Z3	X4	Y4	Z4	X5	Y5	Z5	X6	Y6	Z6	X7	Y7	Z7	X8	Y8	Z8	X9	Y9	Z9	X10	Y10	Z10	X11	Y11	Z11	X12	Y12	Z12	X13	Y13	Z13	X14	Y14	Z14	X15	Y15	Z15	X16	Y16	Z16	X17	Y17	Z17	X18	Y18	Z18	X19	Y19	Z19	X20	Y20	Z20	X21	Y21	Z21	X22	Y22	Z22	X23	Y23	Z23	X24	Y24	Z24	X25	Y25	Z25	X26	Y26	Z26	X27	Y27	Z27	X28	Y28	Z28	X29	Y29	Z29	X30	Y30	Z30	X31	Y31	Z31	X32	Y32	Z32	X33	Y33	Z33	X34	Y34	Z34	X35	Y35	Z35	X36	Y36	Z36	X37	Y37	Z37	X38	Y38	Z38	

31	0.125	31.22823905944825	1045.191040039063	-288.2845153808594	-65.8341522216797	1003.729919433594	-252.9970092773438	15.79158210754395	1026.22607421875	-519.5299682617189	-180.5452270507813	937.082458496094	-425.1939697265626	151.0513458251953	789.2281494140627	-567.5203247070314	115.5561752319336	792.248229980469	-616.3648071289064	138.4556732177735	717.5377807617189	-610.4028930664064	94.58147430419923	716.1732788085939	-649.4218750000001	247.8757324218751	303.5410156250001	-553.2202148437501	229.5827026367188	274.0284423828126	-604.2845458984376	257.2426147460938	245.7752838134766	-557.8671875000001	228.8006591796876	215.0989227294922	-600.9270629882814	292.9073181152344	97.29156494140628	-461.739471435547	262.8968505859376	58.33530807495119	-452.0331115722657	322.7281494140626	61.08082962036134	-475.8021240234376	216.8318023681641	63.41710281372072	-508.2672729492189	319.0322875976563	68.79599761962892	-540.3164062500001	205.5185699462891	77.39437103271486	-566.7072753906251	200.8001556396485	65.58855438232423	-599.5834960937501	239.0163726806641	91.5146942138672	-626.3165893554689	316.0419616699219	42.70100021362305	-583.6254882812501	183.5037231445313	45.62221908569337	-648.8732299804689	227.1181030273438	56.08239364624025	-683.7656250000001	300.2408142089844	32.83055877685548	-661.6415405273439	192.5325317382813	37.57780075073243	-733.3929443359376	-148.9397277832032	633.4949951171876	-377.0495910644532	-176.2496337890625	632.1529541015626	-431.2643432617189	-141.670654296875	559.3052978515626	-419.1419372558595	-155.6902770996094	563.5679321289064	-478.6788940429689	56.32430267333986	486.310760498047	-230.1225891113282	74.24895477294923	437.464569091797	-217.5479125976563	91.41631317138673	473.5205688476564	-187.4318084716797	121.2143173217774	425.9437866210939	-185.401596069336	197.078842163086	551.5014038085939	-93.98094940185548	192.0995178222657	546.3604125976564	-46.94771194458009	240.5560150146485	560.9014282226564	-76.32201385498048	312.3012695312501	352.6021728515626	-92.91162109375001	230.9983520507813	360.4236450195313	-14.05307292938233	
32	0.1291666666666667	24.84898567199708	1044.350830078125	-303.2429504394532	-72.19618988037111	1003.789428710938	-268.0270080566407	13.09770298004151	1024.88916015625	-534.8359985351564	-183.5699310302735	933.6929931640627	-441.1369628906251	147.8641662597657	787.6396484375002	-579.5135498046876	112.7109603881836	790.0651855468752	-628.7816162109376	135.7060852050782	715.5021362304689	-621.7332153320314	92.2214813232422	713.6758422851564	-661.2579956054689	247.2368927001954	303.0728759765626	-556.8834228515626	229.6414947509766	272.5619201660157	-607.6759643554689	257.0023193359376	245.2765808105469	-560.5527954101564	229.2467041015626	213.6391754150391	-603.4229125976564	293.2177734375001	97.55579376220706	-462.0345458984376	263.0731811523438	58.54634094238283	-452.1926574707032	322.9921264648438	61.18847656250001	-475.9268188476564	217.0314636230469	63.34587478637697	-508.3953247070314	319.3528137207032	68.81265258789064	-540.4671020507814	205.6552734375001	77.24583435058595	-566.8308715820314	201.0171813964844	65.43272399902345	-599.7266845703126	239.2904052734376	91.33071899414064	-626.5908813476564	316.2771911621094	42.51219177246094	-583.7331542968751	183.6024017333985	45.94608306884766	-649.1841430664064	227.3782653808594	55.83699417114259	-683.9460449218751	300.4751586914063	32.61587142944337	-661.7255249023439	192.7013397216797	37.44194793701173	-733.4191284179689	-158.9398651123047	633.7270507812501	-399.767791748047	-186.2605133056641	634.5733032226564	-453.9124145507814	-152.7014617919922	560.8388061523439	-443.8232421875001	-166.7563629150391	566.5498046875001	-503.389862060547	44.45536804199219	484.8416137695314	-258.6451110839844	62.38320541381837	435.952117919922	-246.8666076660157	79.70206451416017	471.1871948242189	-216.3710174560547	109.6414031982422	423.7068481445314	-215.3924865722657	186.623031616211	547.6208496093751	-121.127555847168	181.6109619140625	541.0789794921876	-74.2218704223633	230.1856994628907	556.1113891601564	-103.3392562866211	300.4331359863282	347.9505004882813	-126.3163681030274	219.2455749511719	353.9426879882813	-46.88087463378907	
33	0.1333333333333333	18.14650344848633	1043.374633789063	-318.1512756347657	-78.42908477783205	1004.514587402344	-283.3202514648438	10.59710311889649	1023.092529296875	-550.3518066406251	-187.0614318847657	930.6897583007815	-457.0454101562501	144.7656402587891	785.8576660156252	-591.1047363281251	109.9506530761719	787.422546386719	-640.7640380859376	133.1552429199219	713.1633911132814	-632.6560668945314	90.15087890625001	710.8163452148439	-672.5877075195314	246.6248626708985	302.2286376953126	-560.3762817382814	229.8096771240235	270.8653259277344	-610.8580322265626	256.7843322753907	244.4357452392579	-563.0302734375001	229.7227020263672	212.049789428711	-605.7357788085939	293.2826538085938	97.63813781738284	-462.0596923828126	263.0871276855469	58.6484832763672	-452.215789794922	323.0326538085938	61.26155471801759	-475.9280700683595	217.0440368652344	63.40417861938478	-508.389617919922	319.4869079589844	68.85083007812501	-540.4683837890626	205.7554168701172	77.09719085693361	-566.9264526367189	201.2324676513672	65.39991760253908	-599.8070068359376	239.5730895996094	91.18968200683595	-626.6642456054689	316.5153198242188	42.38348770141602	-583.7680053710939	183.761962890625	45.97397613525391	-649.2271728515626	227.5943145751954	55.63792037963869	-683.9745483398439	300.6968688964844	32.41345596313477	-661.7830810546876	192.8129119873047	37.37464904785157	-733.4360351562501	-169.1449279785157	634.5800170898439	-422.5281066894532	-196.2490386962891	637.8192138671876	-476.668426513672	-164.1469268798828	562.8432006835939	-468.7122802734376	-178.027816772461	570.7572631835939	-527.8548583984376	32.66495513916016	483.2363586425782	-286.9474792480469	50.69717025756837	434.0606384277345	-276.4380187988282	68.25892639160158	468.7926635742189	-245.1859588623047	97.99848937988284	421.2510681152345	-245.0255432128907	176.2967987060547	543.0070800781251	-148.1634368896485	171.5125732421875	535.0177001953126	-101.4751052856446	220.1375732421876	550.6130371093751	-130.303466796875	288.2189636230469	342.6061096191407	-160.0649108886719	207.7886810302735	346.6891784667969	-80.50074005126955	
34	0.1375	12.22956085205078	1042.664794921875	-333.0057678222657	-84.4285125732422	1005.397644042969	-298.8066101074219	7.574623584747316	1021.432006835938	-565.3588867187501	-191.1011352539063	927.6300048828127	-472.7273254394532	141.6032257080078	783.923522949219	-602.5670166015626	107.1969833374024	784.6361083984377	-652.6098022460939	130.7625427246094	710.5802001953126	-643.2634277343751	88.2765579223633	707.4503173828126	-683.6821289062501	246.1867065429688	301.0932312011719	-563.7178344726564	230.101303100586	268.7356567382813	-613.9031372070314	256.7311096191407	243.2815856933594	-565.3461914062501	230.1414337158204	210.0880584716797	-607.6944580078126	293.2701721191407	97.8117370605469	-462.1277160644532	263.0338439941407	58.84462738037111	-452.2317504882814	323.0030212402344	61.40888977050783	-475.9104309082032	217.0164337158204	63.39356231689455	-508.4371948242189	319.5768127441407	68.8863983154297	-540.4422607421876	205.8194885253907	76.98536682128908	-567.0014038085939	201.3801269531251	65.34556579589845	-599.8882446289064	239.8106231689454	91.03771972656251	-626.7703247070314	316.6943969726563	42.2827262878418	-583.7316284179689	183.9615173339844	45.85455703735352	-649.2420654296876	227.8676910400391	55.47023391723634	-683.9951782226564	300.8812866210938	32.2109718322754	-661.7902832031251	192.9472808837891	37.2756462097168	-733.4287719726564	-179.4317474365235	636.3384399414064	-445.2039794921876	-205.9056396484376	641.1902465820314	-499.4470825195314	-175.665283203125	565.9030151367189	-493.1302795410157	-189.4702911376953	575.5320434570314	-552.2337036132814	21.06462097167969	481.4591674804689	-315.0506286621094	39.0711784362793	432.2409057617189	-305.6851501464844	56.41199111938478	466.3764038085939	-273.5423278808594	86.53012084960939	418.4979248046876	-274.9521789550782	166.4978942871094	537.9172973632814	-175.1719970703125	161.8890533447266	528.5374145507814	-128.6935577392578	210.3813476562501	544.3537597656251	-157.3956451416016	275.6748962402344	336.6503906250001	-194.1908416748047	195.9363861083985	339.0292053222657	-113.8511123657227	
35	0.1416666666666667	6.655598640441896	1042.157592773438	-348.3076171875001	-90.19869232177736	1006.065612792969	-314.3464660644532	3.643710613250733	1019.962219238281	-580.1491088867189	-196.2259216308594	925.6064453125002	-487.8338928222657	138.4542999267578	781.8315429687502	-614.0801391601564	104.8681182861328	781.623229980469	-664.5035400390626	128.5855560302735	707.7273559570314	-653.7921142578126	86.83929443359376	703.8458251953126	-694.7521972656251	245.8454284667969	299.6863403320313	-566.9266967773439	230.2842407226563	266.4823608398438	-616.6840820312501	256.6423339843751	241.928451538086	-567.5393676757814	230.4229736328126	207.9382629394532	-609.5358276367189	293.1319580078126	97.9788513183594	-462.2513122558595	262.9798278808594	59.04925918579103	-452.2756347656251	322.9326782226563	61.61875915527345	-475.9088745117189	216.9342346191407	63.51545715332033	-508.5121154785157	319.6388244628907	68.9861297607422	-540.4463500976564	205.8160705566407	76.93904113769533	-567.1252441406251	201.4614410400391	65.3883743286133	-600.0384521484376	239.9800109863282	90.96446990966798	-626.9245605468751	316.8604125976563	42.2813835144043	-583.7048950195314	184.2098388671875	45.83438110351563	-649.3101196289064	228.0944824218751	55.33831024169923	-684.0726318359376	301.0400390625001	31.98106193542481	-661.8338623046876	193.0824432373047	37.18635559082032	-733.4351806640626	-189.9961700439453	638.5273437500001	-467.6246337890626	-216.3539581298829	645.1367187500001	-521.8581542968751	-187.5224151611328	569.2019042968751	-517.6333618164064	-201.0540618896485	581.0251464843751	-576.2924804687501	9.981962203979494	480.1127929687501	-342.5686645507813	27.59350204467774	430.3504943847657	-334.5958251953126	45.23168945312501	463.5489196777345	-301.9278259277344	75.25653076171876	415.3633422851564	-304.7312011718751	157.0093688964844	532.3156738281251	-202.1562042236329	152.6256408691407	521.5546875000001	-155.9004669189453	201.0297088623047	537.3424682617189	-184.6296081542969	262.7785034179688	329.8288269042969	-228.6861572265626	183.6503143310547	331.1395263671876	-146.8695068359375	
